{
  "accessors": [
    {
      "bufferView": 2,
      "componentType": 5126,
      "count": 2286,
      "max": [
        71.05513763427734,
        66.18388366699219,
        12.157479286193848
      ],
      "min": [
        -71.05513763427734,
        -63.131370544433594,
        -12.157479286193848
      ],
      "type": "VEC3"
    },
    {
      "bufferView": 2,
      "byteOffset": 27432,
      "componentType": 5126,
      "count": 2286,
      "max": [
        1.0,
        1.0,
        1.0
      ],
      "min": [
        -1.0,
        -1.0,
        -1.0
      ],
      "type": "VEC3"
    },
    {
      "bufferView": 3,
      "componentType": 5126,
      "count": 2286,
      "max": [
        1.0,
        1.0,
        1.0,
        1.0
      ],
      "min": [
        -1.0,
        -1.0,
        -1.0,
        1.0
      ],
      "type": "VEC4"
    },
    {
      "bufferView": 1,
      "componentType": 5126,
      "count": 2286,
      "max": [
        0.9876213669776917,
        0.9900000095367432
      ],
      "min": [
        0.009999999776482582,
        0.008093953132629395
      ],
      "type": "VEC2"
    },
    {
      "bufferView": 1,
      "byteOffset": 18288,
      "componentType": 5126,
      "count": 2286,
      "max": [
        0.9876213669776917,
        0.9900000095367432
      ],
      "min": [
        0.009999999776482582,
        0.008093953132629395
      ],
      "type": "VEC2"
    },
    {
      "bufferView": 1,
      "byteOffset": 36576,
      "componentType": 5126,
      "count": 2286,
      "max": [
        0.9876213669776917,
        0.9900000095367432
      ],
      "min": [
        0.009999999776482582,
        0.008093953132629395
      ],
      "type": "VEC2"
    },
    {
      "bufferView": 0,
      "componentType": 5125,
      "count": 7164,
      "type": "SCALAR"
    }
  ],
  "asset": {
    "extras": {
      "author": "kazukisakamoto (https://sketchfab.com/kazukisakamoto)",
      "license": "CC-BY-4.0 (http://creativecommons.org/licenses/by/4.0/)",
      "source": "https://sketchfab.com/3d-models/torii-7c4d9c93946a41a2a73468b74436705b",
      "title": "Torii"
    },
    "generator": "Sketchfab-12.66.0",
    "version": "2.0"
  },
  "bufferViews": [
    {
      "buffer": 0,
      "byteLength": 28656,
      "name": "floatBufferViews",
      "target": 34963
    },
    {
      "buffer": 0,
      "byteLength": 54864,
      "byteOffset": 28656,
      "byteStride": 8,
      "name": "floatBufferViews",
      "target": 34962
    },
    {
      "buffer": 0,
      "byteLength": 54864,
      "byteOffset": 83520,
      "byteStride": 12,
      "name": "floatBufferViews",
      "target": 34962
    },
    {
      "buffer": 0,
      "byteLength": 36576,
      "byteOffset": 138384,
      "byteStride": 16,
      "name": "floatBufferViews",
      "target": 34962
    }
  ],
  "buffers": [
    {
      "byteLength": 174960,
      "uri": "scene.bin"
    }
  ],
  "images": [
    {
      "uri": "textures/defaultMat1_baseColor.jpeg"
    },
    {
      "uri": "textures/defaultMat1_metallicRoughness.png"
    },
    {
      "uri": "textures/defaultMat1_normal.png"
    }
  ],
  "materials": [
    {
      "name": "defaultMat1",
      "normalTexture": {
        "index": 2
      },
      "pbrMetallicRoughness": {
        "baseColorTexture": {
          "index": 0
        },
        "metallicRoughnessTexture": {
          "index": 1
        }
      }
    }
  ],
  "meshes": [
    {
      "name": "tate1_defaultMat1_0",
      "primitives": [
        {
          "attributes": {
            "NORMAL": 1,
            "POSITION": 0,
            "TANGENT": 2,
            "TEXCOORD_0": 3,
            "TEXCOORD_1": 4,
            "TEXCOORD_2": 5
          },
          "indices": 6,
          "material": 0,
          "mode": 4
        }
      ]
    }
  ],
  "nodes": [
    {
      "children": [
        1
      ],
      "matrix": [
        1.0,
        0.0,
        0.0,
        0.0,
        0.0,
        2.220446049250313e-16,
        -1.0,
        0.0,
        0.0,
        1.0,
        2.220446049250313e-16,
        0.0,
        0.0,
        0.0,
        0.0,
        1.0
      ],
      "name": "Sketchfab_model"
    },
    {
      "children": [
        2
      ],
      "matrix": [
        1.0,
        0.0,
        0.0,
        0.0,
        0.0,
        0.0,
        1.0,
        0.0,
        0.0,
        -1.0,
        0.0,
        0.0,
        0.0,
        0.0,
        0.0,
        1.0
      ],
      "name": "Torii_M.fbx"
    },
    {
      "children": [
        3
      ],
      "name": "RootNode"
    },
    {
      "children": [
        4
      ],
      "name": "tate1"
    },
    {
      "mesh": 0,
      "name": "tate1_defaultMat1_0"
    }
  ],
  "samplers": [
    {
      "magFilter": 9729,
      "minFilter": 9987,
      "wrapS": 10497,
      "wrapT": 10497
    }
  ],
  "scene": 0,
  "scenes": [
    {
      "name": "Sketchfab_Scene",
      "nodes": [
        0
      ]
    }
  ],
  "textures": [
    {
      "sampler": 0,
      "source": 0
    },
    {
      "sampler": 0,
      "source": 1
    },
    {
      "sampler": 0,
      "source": 2
    }
  ]
}
